<?xml version="1.0" standalone="no"?>
<!DOCTYPE svg PUBLIC "-//W3C//DTD SVG 20010904//EN"
 "http://www.w3.org/TR/2001/REC-SVG-20010904/DTD/svg10.dtd">
<svg version="1.0" xmlns="http://www.w3.org/2000/svg"
 width="465.000000pt" height="465.000000pt" viewBox="0 0 465.000000 465.000000"
 preserveAspectRatio="xMidYMid meet">
<metadata>
Created by potrace 1.14, written by Peter Selinger 2001-2017
</metadata>
<g transform="translate(0.000000,465.000000) scale(0.100000,-0.100000)"
fill="#000000" stroke="none">
<path d="M1780 4643 c-14 -3 -30 -9 -37 -14 -7 -7 -13 -5 -17 3 -5 10 -7 10
-12 1 -3 -7 -11 -13 -19 -13 -7 0 -18 -6 -25 -14 -6 -8 -18 -12 -26 -9 -10 4
-12 0 -7 -13 4 -11 3 -15 -5 -10 -6 3 -13 2 -17 -4 -4 -6 -10 -8 -15 -5 -4 3
-10 -2 -14 -10 -3 -8 -10 -15 -17 -15 -6 0 -25 -10 -42 -22 -17 -12 -27 -16
-22 -7 7 11 6 12 -7 2 -8 -7 -18 -10 -21 -6 -4 3 -7 1 -7 -5 0 -7 -3 -11 -7
-10 -5 1 -18 -3 -29 -10 -12 -6 -24 -8 -28 -5 -3 3 -6 -1 -6 -10 0 -15 -6 -19
-26 -16 -4 0 -14 -11 -24 -25 -9 -15 -20 -23 -23 -19 -4 3 -7 -2 -7 -12 0 -10
-3 -15 -7 -12 -3 4 -15 -5 -25 -20 -10 -16 -18 -24 -18 -20 0 4 -11 -3 -23
-17 -13 -14 -27 -23 -30 -19 -4 3 -9 -2 -13 -11 -3 -9 -10 -13 -15 -10 -5 3
-12 -1 -15 -10 -3 -8 -12 -12 -20 -9 -8 3 -14 -1 -14 -8 0 -7 -3 -9 -7 -6 -3
4 -12 2 -20 -4 -7 -6 -13 -8 -13 -5 0 4 -7 0 -16 -8 -8 -9 -24 -16 -34 -16
-10 0 -22 -5 -26 -11 -4 -8 -9 -7 -15 2 -5 9 -9 9 -9 3 0 -7 -10 -15 -22 -19
-13 -4 -25 -8 -28 -9 -3 -1 -21 -12 -40 -24 -19 -12 -41 -22 -47 -22 -7 0 -13
-5 -13 -12 0 -6 -3 -9 -6 -5 -4 3 -13 0 -21 -8 -8 -8 -23 -15 -34 -15 -10 0
-19 -4 -19 -9 0 -7 -39 -22 -55 -21 -7 1 -29 -17 -71 -56 -18 -17 -36 -29 -38
-26 -3 2 -8 -7 -12 -22 -3 -14 -10 -23 -15 -20 -5 3 -6 -2 -3 -10 4 -10 1 -16
-9 -16 -9 0 -13 -8 -12 -25 2 -14 0 -27 -4 -30 -5 -2 -6 -39 -4 -82 2 -43 4
-86 4 -95 0 -10 5 -18 11 -18 6 0 9 -3 6 -6 -3 -3 -2 -21 4 -41 13 -47 19 -75
22 -93 1 -9 5 -20 9 -26 3 -6 8 -25 9 -43 1 -17 6 -31 11 -31 5 0 7 -7 3 -15
-3 -8 0 -15 6 -15 6 0 9 -3 5 -6 -3 -4 1 -13 9 -21 8 -8 12 -19 9 -24 -4 -5
-1 -9 5 -9 6 0 8 -4 5 -10 -3 -5 -1 -10 4 -10 6 0 11 -3 10 -7 -3 -19 15 -53
26 -53 8 0 17 -9 20 -20 4 -11 11 -18 16 -15 5 4 9 0 9 -7 0 -8 9 -20 20 -28
11 -8 20 -19 20 -25 0 -6 14 -26 31 -45 17 -19 27 -28 23 -20 -4 8 4 4 18 -10
28 -27 44 -39 73 -56 24 -13 41 -41 32 -50 -3 -4 -13 -1 -22 6 -8 7 -15 8 -15
3 0 -6 -15 -8 -38 -3 -31 5 -45 2 -72 -17 -19 -13 -31 -23 -26 -23 5 0 3 -7
-4 -15 -13 -16 -5 -111 11 -121 5 -3 9 -15 9 -28 0 -12 4 -26 10 -32 5 -5 11
-22 12 -37 1 -15 6 -27 10 -27 4 0 7 -3 7 -7 -1 -8 0 -12 6 -30 2 -5 6 -18 10
-30 4 -13 11 -23 15 -23 4 0 11 -12 15 -27 3 -15 12 -31 18 -35 8 -5 7 -8 -3
-8 -10 0 -11 -3 -4 -8 12 -8 67 -118 71 -141 1 -8 9 -18 17 -23 9 -5 16 -16
16 -23 0 -8 7 -15 15 -15 8 0 15 -3 15 -8 0 -12 62 -8 98 7 17 7 32 17 32 21
0 3 7 7 15 7 9 0 14 -6 11 -14 -3 -7 -2 -13 3 -13 5 0 12 -19 16 -42 4 -24 9
-47 10 -53 2 -5 4 -17 6 -25 2 -8 7 -17 10 -20 4 -3 9 -18 10 -35 2 -16 6 -32
9 -35 16 -16 30 -53 24 -63 -4 -7 -4 -9 1 -5 14 13 35 -25 23 -40 -8 -10 -6
-11 8 -6 10 4 16 4 12 -1 -4 -4 -1 -20 8 -36 8 -16 11 -29 7 -29 -5 -1 3 -10
16 -20 13 -11 19 -20 15 -20 -5 0 1 -10 13 -23 46 -48 73 -78 73 -82 0 -3 6
-20 14 -38 12 -30 26 -100 29 -149 1 -10 5 -18 10 -18 4 0 5 -5 2 -10 -4 -6
-2 -16 3 -23 5 -7 10 -19 10 -27 0 -8 3 -48 5 -87 3 -44 1 -73 -5 -73 -5 0 -6
-5 -3 -10 4 -6 3 -16 -2 -23 -5 -7 -9 -19 -8 -27 0 -8 -6 -21 -13 -29 -7 -7
-11 -20 -8 -27 3 -8 1 -14 -4 -14 -6 0 -9 -3 -8 -7 6 -24 -23 -102 -47 -129
-17 -18 -55 -35 -64 -29 -5 3 -11 1 -13 -5 -1 -5 -27 -15 -56 -23 -29 -7 -50
-16 -46 -19 3 -4 -3 -4 -15 -1 -13 3 -21 1 -21 -6 0 -7 -4 -10 -9 -7 -5 4 -30
-3 -55 -14 -25 -10 -46 -17 -46 -13 0 3 -8 -1 -17 -10 -18 -16 -21 -17 -49
-17 -8 0 -12 -4 -9 -10 3 -5 -1 -10 -9 -10 -9 0 -16 -5 -16 -12 0 -6 -3 -8 -7
-5 -3 4 -11 3 -17 -2 -6 -5 -28 -18 -48 -30 -21 -12 -54 -30 -73 -41 -19 -11
-35 -17 -35 -14 0 3 -7 -2 -16 -10 -8 -9 -19 -14 -24 -11 -5 3 -10 1 -12 -5
-2 -6 -14 -13 -28 -16 -14 -3 -29 -6 -35 -7 -5 -2 -16 -6 -22 -10 -7 -5 -17
-5 -23 -2 -5 3 -10 2 -10 -3 0 -8 -44 -24 -75 -26 -5 -1 -15 -8 -22 -16 -7 -8
-13 -11 -13 -6 0 5 -6 3 -14 -3 -8 -7 -24 -14 -37 -16 -12 -3 -25 -9 -28 -14
-4 -5 -19 -13 -34 -16 -15 -4 -27 -11 -27 -15 0 -4 -11 -11 -25 -14 -14 -4
-25 -11 -25 -17 0 -6 -4 -7 -10 -4 -5 3 -10 1 -10 -5 0 -6 -4 -8 -10 -5 -5 3
-10 1 -10 -4 0 -6 -7 -11 -15 -11 -8 0 -15 -4 -15 -10 0 -5 -11 -12 -25 -16
-14 -3 -22 -10 -19 -15 3 -5 1 -9 -3 -9 -21 0 -213 -179 -213 -199 0 -6 -6
-11 -13 -11 -11 0 -14 -34 -14 -163 l0 -164 2321 1 2321 1 1 222 c1 125 -2
220 -7 217 -5 -3 -9 0 -9 5 0 12 -94 111 -105 111 -4 0 -16 10 -26 22 -11 11
-19 18 -19 15 0 -4 -15 9 -34 28 -19 18 -37 31 -40 28 -3 -4 -6 -1 -6 5 0 7
-6 12 -14 12 -8 0 -16 7 -20 15 -3 8 -12 15 -21 15 -8 0 -15 3 -15 8 0 7 -54
34 -65 32 -3 0 -12 6 -20 14 -8 8 -23 13 -32 12 -10 -2 -25 6 -35 16 -10 12
-19 15 -23 9 -4 -7 -14 -3 -27 9 -12 11 -30 20 -40 20 -10 0 -18 5 -18 11 0 5
-4 7 -10 4 -6 -3 -10 -1 -10 4 0 6 -3 10 -7 9 -13 -2 -63 14 -63 21 0 6 -45
26 -64 28 -5 1 -12 6 -15 11 -3 6 -15 12 -26 14 -11 1 -26 9 -33 16 -8 7 -18
10 -23 7 -5 -4 -9 -1 -9 4 0 6 -3 10 -7 10 -5 -1 -11 0 -15 1 -5 1 -11 3 -15
5 -5 1 -21 7 -36 13 -16 7 -33 12 -38 12 -5 0 -9 5 -9 11 0 5 -5 7 -11 4 -6
-4 -22 4 -36 16 -15 13 -23 18 -18 10 6 -11 4 -13 -11 -7 -10 4 -41 10 -69 12
-27 3 -52 9 -55 15 -4 5 -11 9 -16 7 -13 -3 -84 22 -84 31 0 7 -60 34 -72 32
-5 0 -8 4 -8 10 0 5 -4 7 -10 4 -5 -3 -10 -2 -10 4 0 6 -7 8 -15 5 -8 -4 -15
-2 -15 3 0 5 -10 10 -22 10 -13 1 -24 7 -26 13 -2 5 -9 10 -15 10 -20 0 -64
44 -61 62 1 9 -4 19 -12 22 -8 3 -14 15 -14 26 0 11 -5 20 -11 20 -5 0 -7 5
-4 10 3 6 -3 22 -14 36 -11 15 -18 31 -14 37 3 6 1 7 -5 3 -7 -4 -12 -1 -12 8
0 9 -5 16 -11 16 -6 0 -9 6 -7 12 3 7 -2 19 -9 27 -8 7 -12 20 -9 27 3 8 1 14
-4 14 -5 0 -12 11 -16 25 -3 14 -10 25 -15 25 -5 0 -9 7 -9 15 0 16 -54 48
-64 38 -3 -4 -6 -1 -6 5 0 7 -8 12 -19 12 -33 0 -53 39 -54 107 0 18 -4 33 -8
33 -4 0 -7 17 -8 38 -1 131 -7 219 -15 231 -7 10 -6 12 4 6 9 -6 11 -4 5 5
-10 17 -15 101 -7 115 10 16 11 36 2 30 -9 -6 -7 32 4 93 5 26 4 32 -6 26 -10
-6 -10 -5 -1 7 6 8 15 41 19 74 7 68 12 107 13 116 1 9 41 19 41 10 0 -4 8 -8
18 -9 34 -4 52 -8 58 -15 4 -4 13 -2 21 5 7 6 16 8 20 5 3 -4 14 3 24 15 11
11 19 17 19 12 0 -5 5 -1 11 9 5 9 7 22 4 27 -3 6 -2 10 3 10 15 0 35 78 36
143 0 20 5 37 9 37 5 0 6 11 3 25 -4 14 -2 25 4 25 5 0 8 14 6 30 -2 17 0 30
4 30 4 0 6 14 5 30 -1 17 1 30 6 30 4 0 8 9 8 20 1 11 1 29 2 40 0 11 5 22 10
25 5 4 7 11 4 16 -4 5 -3 9 2 9 12 0 10 114 -2 122 -6 5 -5 8 3 8 7 0 11 4 8
8 -13 21 -18 78 -21 216 -2 112 -6 150 -16 157 -8 5 -9 9 -4 9 6 0 11 16 11
35 0 19 -3 35 -7 35 -4 0 -7 12 -7 28 0 43 -6 72 -14 72 -4 0 -5 9 -3 20 2 11
-1 20 -6 20 -6 0 -8 4 -5 9 4 5 3 11 -1 13 -11 4 -66 108 -58 108 4 0 -1 7 -9
16 -9 8 -14 20 -11 25 4 5 3 9 -2 9 -8 0 -26 36 -38 78 -3 12 -11 22 -16 22
-5 0 -9 9 -9 20 0 10 -11 30 -25 44 -14 14 -25 29 -25 33 0 4 -14 17 -30 28
-17 11 -33 27 -35 37 -5 15 -18 24 -38 26 -4 1 -18 12 -30 24 -12 13 -29 24
-37 26 -8 2 -17 7 -20 11 -3 3 -24 15 -47 25 -24 11 -43 26 -43 34 0 9 -3 13
-6 10 -3 -3 -20 10 -37 29 -74 81 -99 103 -108 98 -5 -4 -9 -1 -9 5 0 6 -4 8
-10 5 -5 -3 -10 -1 -10 5 0 7 -6 10 -14 7 -8 -3 -24 5 -36 18 -13 14 -28 21
-33 18 -9 -6 -50 -5 -137 1 -14 1 -31 5 -37 9 -7 5 -13 5 -13 1 0 -4 -7 1 -15
12 -8 10 -15 15 -15 11 0 -5 -13 1 -30 13 -16 12 -30 18 -30 14 0 -3 -6 -2
-12 4 -12 9 -74 24 -108 24 -8 1 -21 6 -29 12 -12 9 -13 8 -6 -4 7 -12 6 -13
-6 -4 -15 11 -86 15 -129 7z"/>
</g>
</svg>
